<svg xmlns="http://www.w3.org/2000/svg" viewBox="0 0 73 73"><title>filevine-avatar</title><circle cx="36.5" cy="36.5" r="36.5" style="fill:#fff"/><polygon points="36.5 67.42 41.19 58.05 34.84 45.35 25.47 45.35 36.5 67.42" style="fill:#9accbc"/><polygon points="17.08 28.58 21.28 36.98 30.66 36.98 26.46 28.58 17.08 28.58" style="fill:#9accbc"/><polygon points="55.92 28.58 60.1 20.21 22.27 20.21 26.46 28.58 55.92 28.58" style="fill:#db5822"/><polygon points="22.27 20.21 12.9 20.21 17.08 28.58 26.46 28.58 22.27 20.21" style="fill:#860a0e"/><polygon points="47.53 45.35 51.72 36.98 30.66 36.98 34.84 45.35 47.53 45.35" style="fill:#9b8210"/><polygon points="25.47 45.35 34.84 45.35 30.66 36.98 21.28 36.98 25.47 45.35" style="fill:#005776"/></svg>