<svg xmlns="http://www.w3.org/2000/svg" viewBox="0 0 211.46 54.04"><defs><style>.cls-1{fill:#231f20;}</style></defs><g id="Layer_2" data-name="Layer 2"><g id="Layer_1-2" data-name="Layer 1"><path class="cls-1" d="M22.4,0,0,22.4l3.94,4L22.4,7.89,40.86,26.35l3.94-4ZM5.57,28l3.87,3.88,13-13,13,13L39.24,28,22.4,11.14Z"/><path class="cls-1" d="M75.43,16.35v7.46H57.94v7.56H74.1v7.06H57.94v15H49.6V16.35Z"/><path class="cls-1" d="M85.1,53.44H77.39V28H85.1Zm-.16-29.88H77.56v-7h7.38Z"/><path class="cls-1" d="M95.23,53.44H87.52V16.35h7.71Z"/><path class="cls-1" d="M122.89,41.44V43H104A6.41,6.41,0,0,0,106,47a5.61,5.61,0,0,0,3.9,1.39q3.75,0,5.14-2.87h7.31a10.65,10.65,0,0,1-4.4,6.25,13.92,13.92,0,0,1-8.05,2.3,13,13,0,0,1-9.59-3.66,13.11,13.11,0,0,1-3.65-9.68q0-6.08,3.6-9.68a12.7,12.7,0,0,1,9.54-3.66,12.71,12.71,0,0,1,9.58,3.8Q122.89,35,122.89,41.44ZM109.65,33q-4.74,0-5.58,5h11.26a6.1,6.1,0,0,0-1.88-3.7A5.44,5.44,0,0,0,109.65,33Z"/><path class="cls-1" d="M140.47,28h7.91l-9.09,25.49H130.1L121,28h8.3s5.48,17.66,5.58,18C135,45.61,140.47,28,140.47,28Z"/><path class="cls-1" d="M175,27.36a8.63,8.63,0,0,1,6.45,2.45c1.6,1.63,2.39,3.94,2.39,6.94V53.44h-7.7V38.28q0-4.35-4.1-4.35a4.7,4.7,0,0,0-3.46,1.38,5.31,5.31,0,0,0-1.38,3.91V53.44h-7.71V28H167v3.61A9.31,9.31,0,0,1,175,27.36Z"/><path class="cls-1" d="M211.46,41.44V43H192.59a6.45,6.45,0,0,0,1.92,4,5.62,5.62,0,0,0,3.91,1.39q3.75,0,5.13-2.87h7.31a10.59,10.59,0,0,1-4.39,6.25,13.94,13.94,0,0,1-8.05,2.3A12.56,12.56,0,0,1,185.18,40.7q0-6.08,3.6-9.68a14.12,14.12,0,0,1,19.12.14Q211.46,35,211.46,41.44ZM198.22,33c-3.16,0-5,1.68-5.58,5H203.9a6.15,6.15,0,0,0-1.88-3.7A5.46,5.46,0,0,0,198.22,33Z"/><path class="cls-1" d="M157.07,53.44h-7.7V28h7.7Zm-.16-29.88h-7.38v-7h7.38Z"/></g></g></svg>